<svg width="53" height="71" viewBox="0 0 53 71" fill="none" xmlns="http://www.w3.org/2000/svg">
<path d="M21.9562 21.2539V26H9.01875V21.2539H21.9562ZM11.216 0.40625V26H5.04609V0.40625H11.216ZM45.5145 0.40625V26H39.3621V0.40625H45.5145ZM6.50508 45.4062V71H0.335155V45.4062H6.50508ZM16.4543 56.0586V60.8047H4.74726V56.0586H16.4543ZM17.4562 45.4062V50.1699H4.74726V45.4062H17.4562ZM52.0359 66.2539V71H38.3953V66.2539H52.0359ZM40.5926 45.4062V71H34.4227V45.4062H40.5926ZM50.2781 55.5664V60.1543H38.3953V55.5664H50.2781ZM52.0887 45.4062V50.1699H38.3953V45.4062H52.0887Z" fill="white" fill-opacity="0.8"/>
</svg>
