<svg width="100" height="100" viewBox="0 0 100 100" fill="none" xmlns="http://www.w3.org/2000/svg">
<path fill-rule="evenodd" clip-rule="evenodd" d="M100 50C100 22.3879 77.6121 0 50 0C22.3879 0 0 22.3879 0 50C0 74.9542 18.2817 95.6404 42.1883 99.3956V64.4566H29.4895V50H42.1883V38.9818C42.1883 26.4518 49.6555 19.5259 61.0744 19.5259C66.5447 19.5259 72.2683 20.5032 72.2683 20.5032V32.8083H65.961C59.7526 32.8083 57.8117 36.6615 57.8117 40.62V49.9996H71.6774L69.4624 64.4562H57.8113V99.3952C81.7179 95.647 99.9996 74.9608 99.9996 49.9996L100 50Z" fill="white"/>
<path fill-rule="evenodd" clip-rule="evenodd" d="M69.4628 64.4562L71.6778 49.9996H57.8121V40.62C57.8121 36.6684 59.7456 32.8083 65.9614 32.8083H72.2687V20.5032C72.2687 20.5032 66.5454 19.5259 61.0747 19.5259C49.6559 19.5259 42.1886 26.4449 42.1886 38.9818V50H29.4899V64.4566H42.1886V99.3956C44.7339 99.7958 47.3425 100 50.0004 100C52.6582 100 55.2669 99.7889 57.8121 99.3956V64.4566H69.4632L69.4628 64.4562Z" fill="#04090C"/>
</svg>
