<svg width="100" height="100" viewBox="0 0 100 100" fill="none" xmlns="http://www.w3.org/2000/svg">
<g clip-path="url(#clip0_2_195)">
<path d="M50.0439 24.5231C49.1645 24.5231 48.2947 24.5679 47.4378 24.6557C46.5808 24.7435 45.7357 24.8735 44.905 25.0443C44.0743 25.215 43.2583 25.4265 42.4587 25.676L40.1117 26.5378L37.8772 27.6168L35.7686 28.8998L33.7984 30.3735L31.9803 32.0249L30.3273 33.8414L28.852 35.8094L27.5674 37.9161L26.4878 40.148C26.1632 40.9114 25.8746 41.6941 25.6247 42.4931C25.3748 43.292 25.1634 44.1077 24.9923 44.9374C24.8212 45.7671 24.6912 46.6113 24.6031 47.4676C24.515 48.3239 24.4708 49.1928 24.4708 50.0712C24.4708 50.9496 24.5156 51.8184 24.6031 52.6748C24.69 53.5243 24.8199 54.3689 24.9923 55.2053C25.1634 56.0382 25.3748 56.8507 25.6247 57.6497C25.8746 58.4486 26.1629 59.231 26.4878 59.9947L27.5674 62.2267L28.852 64.333L30.3273 66.3013L31.9803 68.1178L33.7984 69.7692L35.7686 71.2429L37.8772 72.5259L40.1117 73.6049L42.4587 74.4667L44.905 75.0984C45.7422 75.2706 46.5875 75.4004 47.4378 75.4874C48.3037 75.5757 49.1735 75.6198 50.0439 75.6197C50.9233 75.6197 51.7931 75.5748 52.6497 75.4874C53.5 75.4004 54.3453 75.2706 55.1825 75.0984L57.6291 74.4667L59.976 73.6049L62.2102 72.5259L64.3192 71.2429L66.2894 69.7692L68.1078 68.1178L69.7608 66.3013L71.2361 64.333L72.5207 62.2267L73.6003 59.9947L74.4634 57.6497C74.7133 56.8507 74.9247 56.035 75.0958 55.2053L75.485 52.6744C75.5728 51.8181 75.6177 50.9493 75.6177 50.0709C75.6177 49.1924 75.5728 48.3236 75.485 47.4673C75.3981 46.6179 75.2682 45.7734 75.0958 44.9371C74.9247 44.1042 74.7133 43.292 74.4634 42.4927L73.6003 40.1477L72.5207 37.9157L71.2361 35.809L69.7608 33.8411L68.1078 32.0246L66.2894 30.3732L64.3192 28.8995L62.2102 27.6165L59.976 26.5375L57.6291 25.6757L55.1825 25.044L52.6497 24.6554C51.7839 24.5669 50.9142 24.5227 50.0439 24.5227V24.5231ZM50.0439 33.3413C50.6253 33.3413 51.1991 33.3701 51.7642 33.4272L53.4301 33.6793L55.0393 34.0894L56.5802 34.649L58.0452 35.3506L59.4228 36.1852L60.7106 37.1453L61.8979 38.2223L62.9759 39.4083L63.937 40.6949L64.7725 42.0743L65.4741 43.5384C65.6849 44.0394 65.872 44.553 66.0347 45.0781C66.1974 45.6031 66.3342 46.1397 66.4448 46.6863C66.5553 47.2328 66.637 47.7889 66.6969 48.3537L66.7827 50.0728C66.7827 50.6536 66.7539 51.2271 66.6969 51.7922C66.6399 52.3573 66.5559 52.9134 66.4448 53.4597C66.3336 54.0059 66.1965 54.5425 66.0347 55.0679L65.4741 56.6075L64.7725 58.0716L63.937 59.4507L62.9759 60.7376L61.8979 61.9236L60.7106 63.0006L59.4228 63.9608L58.0452 64.7953L56.5802 65.4969L55.0393 66.0566L53.4301 66.4666L51.7642 66.7184C51.1925 66.7757 50.6182 66.8044 50.0436 66.8043C49.4688 66.8044 48.8945 66.7757 48.3226 66.7184L46.6567 66.4666C46.1099 66.3558 45.5729 66.2187 45.0472 66.0566L43.5063 65.4969L42.0413 64.7953L40.6637 63.9608L39.3759 63.0006L38.1886 61.9236L37.1106 60.7376L36.1495 59.4507L35.314 58.0716L34.6124 56.6075L34.0518 55.0679L33.6417 53.4597L33.3896 51.7922C33.3323 51.2208 33.3036 50.647 33.3038 50.0728C33.3036 49.4987 33.3323 48.925 33.3896 48.3537C33.4463 47.7889 33.5306 47.2325 33.6417 46.6863C33.7518 46.1438 33.8888 45.6072 34.0521 45.0784L34.6128 43.5387L35.3143 42.0747L36.1498 40.6952L37.1109 39.4086L38.1889 38.2227L39.3762 37.1456L40.664 36.1855L42.0416 35.3509L43.5066 34.6493C44.0109 34.4376 44.5252 34.2508 45.0479 34.0897L46.6574 33.6796C47.2042 33.5688 47.761 33.4842 48.3232 33.4275C48.8951 33.3702 49.4695 33.3415 50.0442 33.3416L50.0439 33.3413Z" fill="white"/>
<path d="M76.6545 17.2553C76.4514 17.2554 76.2485 17.2657 76.0465 17.2861C75.8444 17.3065 75.6435 17.3371 75.4445 17.3777C75.2455 17.4183 75.0487 17.4689 74.8547 17.5293C74.6607 17.5897 74.4699 17.6598 74.2829 17.7394C74.0959 17.8191 73.9129 17.9082 73.7347 18.0063C73.5566 18.1042 73.3833 18.211 73.2158 18.3263C73.0481 18.4418 72.8864 18.5656 72.7311 18.6973C72.5758 18.8289 72.4272 18.9682 72.2857 19.1147C72.1443 19.2613 72.0102 19.415 71.884 19.5751C71.7578 19.7352 71.6397 19.9016 71.53 20.0736C71.4204 20.2454 71.3193 20.4227 71.2273 20.6047C71.1351 20.7869 71.052 20.9736 70.9784 21.1641C70.9048 21.3546 70.8408 21.5486 70.7865 21.7455C70.7322 21.9424 70.6877 22.1419 70.6532 22.3433C70.6187 22.5446 70.5942 22.7476 70.5798 22.9514C70.5696 23.0957 70.5645 23.2404 70.5645 23.3851C70.5644 23.5896 70.5746 23.7939 70.5949 23.9973C70.6152 24.2007 70.6455 24.4029 70.6859 24.6031C70.7262 24.8034 70.7764 25.0015 70.8364 25.1968C70.8965 25.3921 70.9662 25.5842 71.0453 25.7725C71.1244 25.9608 71.2128 26.145 71.3102 26.3244C71.4076 26.5038 71.5137 26.6782 71.6284 26.847C71.743 27.0156 71.866 27.1783 71.9968 27.3345C72.1276 27.4909 72.266 27.6406 72.4116 27.783C72.5573 27.9254 72.71 28.0603 72.8691 28.1873C73.0282 28.3144 73.1935 28.4334 73.3644 28.5439C73.5353 28.6544 73.7116 28.7562 73.8927 28.8489C74.0736 28.9417 74.259 29.0253 74.4482 29.0994C74.6374 29.1735 74.8302 29.2379 75.0258 29.2926C75.2214 29.3472 75.4197 29.3919 75.6197 29.4265C75.8198 29.4613 76.0214 29.486 76.2239 29.5005C76.3673 29.5107 76.5111 29.5159 76.6548 29.5159C76.8579 29.5159 77.0608 29.5058 77.2629 29.4854C77.4649 29.465 77.6658 29.4344 77.8648 29.3938C78.0638 29.3532 78.2606 29.3027 78.4546 29.2423C78.6486 29.1819 78.8394 29.1117 79.0265 29.0321C79.2135 28.9525 79.3964 28.8636 79.5746 28.7656C79.7528 28.6676 79.926 28.5607 80.0936 28.4452C80.2612 28.3299 80.4229 28.2062 80.5783 28.0746C80.7335 27.9429 80.8821 27.8035 81.0236 27.6568C81.165 27.5102 81.2991 27.3566 81.4253 27.1965C81.5515 27.0364 81.6696 26.87 81.7793 26.698C81.889 26.526 81.99 26.3486 82.082 26.1665C82.1742 25.9844 82.2573 25.7977 82.331 25.6072C82.4045 25.4167 82.4686 25.2226 82.5229 25.0257C82.5772 24.8288 82.6216 24.6293 82.6561 24.4279C82.6906 24.2266 82.7151 24.0236 82.7295 23.8199C82.7397 23.6755 82.7448 23.5308 82.7449 23.3861C82.7449 23.1817 82.7347 22.9775 82.7144 22.7742C82.6942 22.5709 82.6638 22.3687 82.6235 22.1684C82.5831 21.9681 82.5329 21.77 82.4729 21.5748C82.4128 21.3795 82.3431 21.1874 82.264 20.9991C82.1849 20.8108 82.0965 20.6265 81.9991 20.4471C81.9018 20.2677 81.7956 20.0933 81.681 19.9246C81.5662 19.7559 81.4431 19.593 81.3122 19.4367C81.1815 19.2803 81.0432 19.1306 80.8977 18.9882C80.752 18.8458 80.5993 18.7109 80.4402 18.5839C80.2811 18.4569 80.1158 18.338 79.9449 18.2276C79.774 18.1172 79.5977 18.0154 79.4166 17.9227C79.2357 17.8299 79.0503 17.7463 78.8611 17.6721C78.6719 17.5981 78.4792 17.5336 78.2835 17.479C78.0879 17.4243 77.8897 17.3795 77.6896 17.3447C77.4895 17.31 77.2879 17.2855 77.0854 17.271C76.942 17.2608 76.7983 17.2557 76.6545 17.2557V17.2553Z" fill="white"/>
<path d="M45.1945 0.0904168C42.4131 0.0859318 39.931 0.0974632 37.7013 0.128859L31.7233 0.289039C29.9524 0.365926 28.3877 0.466191 26.9833 0.595937C26.281 0.66065 25.6185 0.733053 24.9906 0.812822C24.3931 0.888132 23.7972 0.975828 23.2033 1.07584C22.6379 1.17195 22.1013 1.27574 21.5868 1.38851C21.0723 1.50128 20.5808 1.62302 20.1067 1.75373C19.6432 1.88154 19.1833 2.02213 18.7276 2.17532C18.281 2.32589 17.8453 2.48543 17.415 2.65587C16.5545 2.99673 15.7152 3.37923 14.8509 3.80788C14.1858 4.13785 13.5713 4.47198 12.9876 4.82566C12.4039 5.17934 11.851 5.55289 11.3096 5.95974C10.752 6.38078 10.2146 6.82786 9.69914 7.2995C9.16029 7.79029 8.60991 8.33009 8.03807 8.93333C7.3195 9.68714 6.69512 10.39 6.14089 11.0798C5.86378 11.4245 5.60429 11.7653 5.35985 12.1081C5.11812 12.4459 4.88703 12.7912 4.66691 13.1435C4.44907 13.4927 4.24275 13.8483 4.04541 14.2142C3.84499 14.5863 3.65558 14.9643 3.47741 15.3476C3.11284 16.1306 2.77262 16.9738 2.43304 17.915C2.18111 18.6108 1.95552 19.3159 1.75675 20.0287C1.55396 20.7572 1.3736 21.5194 1.21278 22.3436C1.05196 23.1679 0.91164 24.0544 0.788301 25.0347C0.65539 26.1092 0.549212 27.1869 0.469863 28.2668C0.380161 29.4541 0.305838 30.7605 0.244969 32.2146L0.100807 37.0495L0.0232797 42.9432L0.000854492 50.067L0.0665285 60.4265L0.271559 68.2754L0.429497 71.3412L0.62684 73.8817C0.690101 74.5665 0.769251 75.2496 0.864228 75.9307C0.950725 76.5356 1.04363 77.0648 1.14358 77.5229C1.34639 78.4543 1.58621 79.3773 1.86247 80.2896C2.12699 81.163 2.42948 82.0246 2.76909 82.8717C3.10291 83.7014 3.46812 84.5017 3.86537 85.2718C4.26262 86.042 4.6919 86.782 5.15322 87.4929C5.61454 88.2038 6.10789 88.8855 6.63457 89.5381C7.16064 90.1907 7.72021 90.8156 8.31102 91.4103C8.90272 92.0061 9.52679 92.5732 10.1845 93.112C10.85 93.657 11.5417 94.1691 12.2572 94.6465C12.9213 95.0906 13.5784 95.4971 14.2403 95.8703C14.9021 96.2435 15.5698 96.5822 16.256 96.89C16.9422 97.1979 17.6457 97.475 18.3806 97.7242C19.1155 97.9735 19.8812 98.1952 20.6904 98.3919C21.4996 98.5886 22.3563 98.7612 23.2629 98.9118C24.1695 99.0624 25.1386 99.1915 26.174 99.3027C27.2094 99.4138 28.314 99.5058 29.501 99.5826C30.6879 99.6595 31.9565 99.721 33.3197 99.7704C35.4254 99.8466 38.613 99.8912 42.2888 99.9081L54.1886 99.8841L65.457 99.7262L69.7415 99.6057L72.5328 99.4622C73.1319 99.4135 73.7181 99.3558 74.2839 99.2882C74.8497 99.2206 75.4077 99.1434 75.9511 99.0557C76.4944 98.9679 77.0256 98.8699 77.5474 98.7609C78.0633 98.6535 78.5764 98.5335 79.0864 98.4012C79.5913 98.273 80.0892 98.1273 80.5819 97.9725C81.0746 97.8178 81.5622 97.6506 82.0469 97.4712C82.5344 97.2906 83.0174 97.0982 83.4956 96.8942C83.9771 96.6892 84.4579 96.47 84.9404 96.2374C85.6814 95.8806 86.2779 95.5829 86.8017 95.2924C87.2944 95.0221 87.7689 94.7199 88.2222 94.3877C88.6694 94.0583 89.1141 93.6835 89.6266 93.2113C90.1392 92.7391 90.72 92.1701 91.4392 91.4506C92.0713 90.8189 92.6044 90.2698 93.0641 89.7703C93.5238 89.2709 93.9111 88.8214 94.2507 88.3883C94.5745 87.9773 94.876 87.5493 95.1541 87.1062C95.4255 86.6737 95.6754 86.2246 95.9301 85.7264C96.3132 84.9768 96.6541 84.2825 96.9594 83.6127C97.2558 82.9671 97.5266 82.3101 97.7712 81.6431C98.0121 80.9814 98.2206 80.3084 98.3962 79.6264C98.5769 78.9248 98.7326 78.1842 98.8671 77.3717C99.0017 76.5593 99.1154 75.6751 99.2141 74.6877C99.3127 73.7004 99.3967 72.6092 99.4704 71.3832L99.6658 67.2675L99.8337 62.1491L99.9535 56.4467L99.9996 50.4841L99.8926 38.7733L99.7494 33.5281L99.554 29.0244L99.3105 25.5133C99.2221 24.5362 99.1266 23.7667 99.0254 23.2464C98.9134 22.6716 98.7882 22.0994 98.6499 21.5302C98.5154 20.9765 98.3674 20.426 98.2062 19.8794C98.0491 19.3469 97.8784 18.8184 97.6943 18.2946C97.5123 17.7772 97.3195 17.2707 97.1176 16.7751C96.9158 16.2795 96.6973 15.7955 96.4699 15.3217C96.2424 14.8478 96.0041 14.3856 95.7539 13.9338C95.5037 13.4821 95.2429 13.0416 94.9703 12.612C94.6976 12.1824 94.4138 11.7637 94.1181 11.3562C93.8241 10.95 93.5175 10.5531 93.1987 10.1661C92.8815 9.78117 92.5522 9.40637 92.2113 9.04226C91.8709 8.6786 91.5191 8.32581 91.1564 7.98443C90.7934 7.64292 90.4195 7.31231 90.0338 6.99259C89.6467 6.67181 89.2497 6.36316 88.8434 6.06707C88.4327 5.76795 88.0131 5.48142 87.585 5.20786C87.151 4.93041 86.7089 4.66589 86.2593 4.41464C85.8018 4.15919 85.3371 3.91689 84.8658 3.68806C84.0834 3.3078 83.3601 2.97046 82.6498 2.67124C81.9517 2.37429 81.2399 2.11055 80.5168 1.88091C79.7896 1.65185 79.0326 1.45547 78.1997 1.286C77.3667 1.11653 76.4585 0.975252 75.4305 0.855116C74.4024 0.734981 73.2546 0.637914 71.9417 0.557183C70.6289 0.476452 69.1524 0.413015 67.4663 0.361758L61.7363 0.233615L54.4843 0.148079L45.1977 0.0910523L45.1945 0.0904168ZM50.0175 8.90098L63.4096 8.97723L68.4617 9.07462C69.853 9.1137 70.9147 9.15951 71.5371 9.21237C72.3476 9.28061 73.1197 9.36614 73.8582 9.46866C74.5668 9.56652 75.272 9.68821 75.9725 9.83355C76.6453 9.97451 77.287 10.1347 77.9011 10.3154C78.5152 10.4961 79.1018 10.6985 79.6647 10.9225C80.2276 11.1464 80.7658 11.3927 81.2838 11.6625C81.7977 11.9302 82.297 12.2248 82.7799 12.5451C83.2604 12.8638 83.7237 13.2073 84.1734 13.5773C84.6232 13.9473 85.0592 14.3439 85.485 14.7681C85.9345 15.2156 86.349 15.6715 86.7312 16.1418C87.112 16.6091 87.4643 17.099 87.7862 17.6087C88.1117 18.1257 88.4051 18.6622 88.6646 19.2153C88.9298 19.7792 89.1682 20.375 89.3822 21.0084C89.5962 21.6417 89.7868 22.3148 89.9556 23.034C90.1325 23.7965 90.2806 24.5654 90.3997 25.339C90.5278 26.1591 90.6374 27.0337 90.7303 27.9701C90.8232 28.9066 90.9001 29.9051 90.9635 30.9735C91.0141 31.8305 91.0583 32.9614 91.0958 34.297L91.1897 38.8509L91.2614 50.0058L91.1797 61.1502L91.0817 65.691L90.9468 68.9936C90.8533 70.54 90.7546 71.84 90.6367 72.9716C90.5775 73.5373 90.5134 74.0608 90.4423 74.5519C90.3757 75.0159 90.2967 75.478 90.2055 75.9378C90.1222 76.3572 90.0255 76.7739 89.9156 77.1872C89.8103 77.5816 89.6918 77.9723 89.5603 78.3587C89.4278 78.747 89.2837 79.1312 89.1282 79.5108C88.9637 79.9116 88.7901 80.3086 88.6076 80.7015C88.4451 81.0523 88.2744 81.3935 88.0937 81.7257C87.9151 82.0546 87.7253 82.3773 87.5247 82.6932C87.3261 83.0062 87.1179 83.3102 86.9 83.6047C86.6834 83.8981 86.4562 84.1836 86.219 84.4607C85.9824 84.7365 85.7359 85.0037 85.4799 85.2616C85.2236 85.5194 84.9577 85.7684 84.6822 86.0086C84.4067 86.2489 84.1209 86.4796 83.8252 86.7019C83.5295 86.9242 83.2236 87.1376 82.9074 87.342C82.5912 87.5464 82.2651 87.7424 81.9284 87.9295C81.5917 88.1166 81.2444 88.2954 80.8872 88.4655C80.5238 88.6382 80.1553 88.7999 79.7823 88.9505C79.3966 89.1061 79.0067 89.2508 78.6129 89.3846C77.812 89.6575 76.9673 89.8972 76.0779 90.1038C75.1511 90.3179 74.2157 90.4929 73.2741 90.6286C72.9121 90.6814 72.0801 90.7311 70.8884 90.7772L66.347 90.9034L53.4717 91.0707L39.9954 91.0918L34.703 91.0354L31.2665 90.9284L28.7324 90.7503C27.9456 90.684 27.2139 90.6103 26.5283 90.5267C25.8428 90.4431 25.2043 90.3499 24.6036 90.2448C24.0344 90.1463 23.4686 90.0288 22.9073 89.8924C22.3955 89.7679 21.8889 89.6227 21.3888 89.4573C20.9067 89.2971 20.4457 89.1209 19.9971 88.9271C19.5486 88.7333 19.1129 88.5209 18.6814 88.289C18.2499 88.057 17.8229 87.8052 17.391 87.5307C17.0652 87.3237 16.7503 87.1142 16.4472 86.8922C16.1442 86.6702 15.8514 86.4488 15.5694 86.2169C15.2875 85.9849 15.0168 85.7459 14.7557 85.4999C14.4964 85.2551 14.2459 85.0009 14.0048 84.7381C13.7645 84.476 13.5348 84.2063 13.3144 83.9269C13.0932 83.6465 12.8823 83.358 12.6823 83.062C12.4794 82.7614 12.2874 82.4537 12.1067 82.1393C11.924 81.8222 11.7504 81.4941 11.5854 81.1558C11.4177 80.811 11.2612 80.4609 11.1161 80.106C10.9687 79.7446 10.8291 79.3717 10.6977 78.9866C10.435 78.2162 10.2044 77.3961 10.0038 76.5215C9.80326 75.6469 9.63219 74.7178 9.48738 73.7279C9.34258 72.738 9.22597 71.6885 9.13306 70.573C9.06451 69.7513 9.01005 68.4715 8.9684 66.8568L8.88126 61.1144L8.9133 46.4755L9.16542 32.4872L9.35764 27.5588L9.46656 25.9298C9.50436 25.4947 9.54345 25.1724 9.58349 24.9789C9.71548 24.3424 9.84843 23.75 9.98587 23.1955C10.1143 22.6723 10.2571 22.1528 10.4142 21.6376C10.5635 21.1513 10.7208 20.6957 10.889 20.2642C11.0511 19.8462 11.2319 19.4356 11.4307 19.0337C11.6248 18.6428 11.8334 18.2687 12.0599 17.9044C12.2864 17.5401 12.5308 17.1868 12.7974 16.8354C13.0639 16.4839 13.3509 16.137 13.6633 15.7852C13.9756 15.4335 14.313 15.0782 14.6788 14.712C15.1052 14.2832 15.5492 13.8722 16.0096 13.4802C16.4444 13.1104 16.8977 12.7629 17.3679 12.4394C17.8302 12.119 18.3044 11.8339 18.798 11.5718C19.2917 11.3098 19.8049 11.073 20.3447 10.86C20.8845 10.6469 21.4516 10.4563 22.0523 10.2833C22.6833 10.1063 23.3214 9.95531 23.9648 9.83067C24.6414 9.69804 25.36 9.58238 26.1273 9.48147C26.8945 9.38056 27.7108 9.29342 28.5835 9.21781C29.1921 9.16527 30.241 9.1185 31.6221 9.0791L36.6485 8.97979L50.0198 8.89809L50.0175 8.90098Z" fill="white"/>
</g>
<defs>
<clipPath id="clip0_2_195">
<rect width="100" height="100" fill="white"/>
</clipPath>
</defs>
</svg>
